<?xml version="1.0" standalone="no"?><!DOCTYPE svg PUBLIC "-//W3C//DTD SVG 1.1//EN" "http://www.w3.org/Graphics/SVG/1.1/DTD/svg11.dtd"><svg t="1641650837303" class="icon" viewBox="0 0 1024 1024" version="1.1" xmlns="http://www.w3.org/2000/svg" p-id="1582" width="32" height="32" xmlns:xlink="http://www.w3.org/1999/xlink"><defs><style type="text/css"></style></defs><path d="M397.963636 791.272727H162.909091c-25.6 0-46.545455-20.945455-46.545455-46.545454V186.181818c0-25.6 20.945455-46.545455 46.545455-46.545454h558.545454c25.6 0 46.545455 20.945455 46.545455 46.545454v290.909091c0 11.636364 11.636364 20.945455 23.272727 20.945455s23.272727-9.309091 23.272728-20.945455V186.181818c0-51.2-41.890909-93.090909-93.09091-93.090909H162.909091C111.709091 93.090909 69.818182 134.981818 69.818182 186.181818v558.545455c0 51.2 41.890909 93.090909 93.090909 93.090909h235.054545c11.636364 0 20.945455-11.636364 20.945455-23.272727s-9.309091-23.272727-20.945455-23.272728z" p-id="1583" fill="#FFFFFF"></path><path d="M442.181818 256c-13.963636 0-23.272727 9.309091-23.272727 23.272727v162.909091h-162.909091c-13.963636 0-23.272727 9.309091-23.272727 23.272727s9.309091 23.272727 23.272727 23.272728h186.181818c13.963636 0 23.272727-9.309091 23.272727-23.272728v-186.181818c0-13.963636-11.636364-23.272727-23.272727-23.272727z" p-id="1584" fill="#FFFFFF"></path><path d="M242.036364 265.309091c-9.309091 9.309091-9.309091 23.272727 0 32.581818l132.654545 132.654546c9.309091 9.309091 23.272727 9.309091 32.581818 0s9.309091-23.272727 0-32.581819l-132.654545-132.654545c-9.309091-9.309091-23.272727-9.309091-32.581818 0zM861.090909 558.545455H581.818182c-51.2 0-93.090909 41.890909-93.090909 93.090909v186.181818c0 51.2 41.890909 93.090909 93.090909 93.090909h279.272727c51.2 0 93.090909-41.890909 93.090909-93.090909v-186.181818c0-51.2-41.890909-93.090909-93.090909-93.090909z m46.545455 279.272727c0 25.6-20.945455 46.545455-46.545455 46.545454H581.818182c-25.6 0-46.545455-20.945455-46.545455-46.545454v-186.181818c0-25.6 20.945455-46.545455 46.545455-46.545455h279.272727c25.6 0 46.545455 20.945455 46.545455 46.545455v186.181818z" p-id="1585" fill="#FFFFFF"></path></svg>