<?xml version="1.0" standalone="no"?><!DOCTYPE svg PUBLIC "-//W3C//DTD SVG 1.1//EN" "http://www.w3.org/Graphics/SVG/1.1/DTD/svg11.dtd"><svg t="1641652418570" class="icon" viewBox="0 0 1024 1024" version="1.1" xmlns="http://www.w3.org/2000/svg" p-id="2164" width="32" height="32" xmlns:xlink="http://www.w3.org/1999/xlink"><defs><style type="text/css"></style></defs><path d="M82.0224 469.1968l0 116.4288c0 55.0912 44.6464 99.84 99.84 99.84l95.6416 0 272.384 176.7424c0 0 32.5632 20.7872 54.4768 18.944 20.1728-1.6384 34.9184-18.5344 34.9184-50.176L639.2832 477.4912l0 42.3936L639.2832 166.5024c-0.3072-20.3776-2.1504-38.2976-8.704-45.6704-24.576-27.5456-80.6912 14.4384-80.6912 14.4384l-272.384 176.7424-95.6416 0c-55.0912 0-99.84 44.6464-99.84 99.84l0 116.4288" p-id="2165" fill="#00B6FF"></path><path d="M802.4064 770.6624c-6.7584 0-13.4144-3.4816-17.1008-9.8304-5.5296-9.4208-2.3552-21.504 7.0656-27.0336 40.448-23.6544 74.3424-57.5488 97.9968-97.8944 24.3712-41.5744 37.2736-89.2928 37.2736-137.8304 0-48.128-12.6976-95.4368-36.6592-136.8064-23.3472-40.1408-56.7296-73.9328-96.5632-97.6896-9.4208-5.632-12.4928-17.7152-6.8608-27.136 5.632-9.4208 17.7152-12.4928 27.136-6.8608 45.6704 27.2384 83.8656 65.9456 110.592 111.8208 27.5456 47.4112 42.0864 101.5808 42.0864 156.5696 0 55.6032-14.7456 110.08-42.7008 157.7984-27.136 46.2848-65.9456 84.992-112.2304 112.0256C809.1648 769.7408 805.7856 770.6624 802.4064 770.6624z" p-id="2166" fill="#00B6FF"></path><path d="M708.4032 655.2576c-6.7584 0-13.4144-3.4816-17.1008-9.8304-5.5296-9.4208-2.3552-21.504 7.0656-27.0336 20.5824-12.0832 37.888-29.2864 49.9712-49.8688 12.3904-21.1968 18.944-45.4656 18.944-70.144 0-24.4736-6.4512-48.64-18.6368-69.632-11.8784-20.48-28.8768-37.6832-49.2544-49.7664-9.4208-5.632-12.4928-17.7152-6.8608-27.136 5.632-9.4208 17.7152-12.4928 27.136-6.8608 26.112 15.5648 47.9232 37.6832 63.1808 63.8976 15.7696 27.0336 24.064 58.0608 24.064 89.4976 0 31.744-8.3968 62.976-24.4736 90.2144-15.4624 26.4192-37.6832 48.5376-64.1024 64C715.264 654.4384 711.7824 655.2576 708.4032 655.2576z" p-id="2167" fill="#00B6FF"></path></svg>