<?xml version="1.0" standalone="no"?><!DOCTYPE svg PUBLIC "-//W3C//DTD SVG 1.1//EN" "http://www.w3.org/Graphics/SVG/1.1/DTD/svg11.dtd"><svg t="1641646930215" class="icon" viewBox="0 0 1024 1024" version="1.1" xmlns="http://www.w3.org/2000/svg" p-id="2563" width="32" height="32" xmlns:xlink="http://www.w3.org/1999/xlink"><defs><style type="text/css"></style></defs><path d="M901.76 0H122.24A122.368 122.368 0 0 0 0 122.24v779.52A122.368 122.368 0 0 0 122.24 1024h779.52A122.368 122.368 0 0 0 1024 901.76V122.24A122.368 122.368 0 0 0 901.76 0zM981.333333 901.76A79.701333 79.701333 0 0 1 901.76 981.333333H122.24A79.701333 79.701333 0 0 1 42.666667 901.76V122.24C42.666667 78.378667 78.378667 42.666667 122.24 42.666667h779.52C945.621333 42.666667 981.333333 78.378667 981.333333 122.24v779.52z" p-id="2564" fill="#0096FF"></path><path d="M790.186667 256h-299.264a21.333333 21.333333 0 0 0 0 42.666667h299.264a21.333333 21.333333 0 0 0 0-42.666667zM790.186667 512h-299.264a21.333333 21.333333 0 0 0 0 42.666667h299.264a21.333333 21.333333 0 0 0 0-42.666667zM790.186667 768h-299.264a21.333333 21.333333 0 0 0 0 42.666667h299.264a21.333333 21.333333 0 0 0 0-42.666667zM256 171.264c-46.805333 0-84.864 38.101333-84.864 84.906667S209.194667 341.077333 256 341.077333s84.906667-38.101333 84.906667-84.906666-38.101333-84.906667-84.906667-84.906667z m0 127.146667a42.24 42.24 0 0 1 0-84.48 42.282667 42.282667 0 0 1 0 84.48zM256 427.306667a84.992 84.992 0 0 0-84.864 84.906666c0 46.805333 38.101333 84.864 84.864 84.864 46.805333 0 84.906667-38.101333 84.906667-84.864A85.034667 85.034667 0 0 0 256 427.306667z m0 127.104a42.24 42.24 0 0 1 0-84.437334c23.296 0 42.24 18.944 42.24 42.24a42.325333 42.325333 0 0 1-42.24 42.197334zM256 683.306667a84.992 84.992 0 0 0-84.864 84.864c0 46.848 38.101333 84.906667 84.864 84.906666 46.805333 0 84.906667-38.101333 84.906667-84.906666A85.034667 85.034667 0 0 0 256 683.306667z m0 127.146666a42.24 42.24 0 0 1 0-84.48 42.24 42.24 0 0 1 0 84.48z" p-id="2565" fill="#0096FF"></path></svg>