<?xml version="1.0" standalone="no"?><!DOCTYPE svg PUBLIC "-//W3C//DTD SVG 1.1//EN" "http://www.w3.org/Graphics/SVG/1.1/DTD/svg11.dtd"><svg t="1641646877494" class="icon" viewBox="0 0 1029 1024" version="1.1" xmlns="http://www.w3.org/2000/svg" p-id="3276" xmlns:xlink="http://www.w3.org/1999/xlink" width="32.15625" height="32"><defs><style type="text/css"></style></defs><path d="M998.4 263.168H807.936V144.384c0-17.408-13.312-30.72-30.72-30.72h-522.24c-17.408 0-30.72 13.312-30.72 30.72v118.784H30.72c-17.408 0-30.72 13.312-30.72 30.72v582.656c0 17.408 13.312 30.72 30.72 30.72H998.4c17.408 0 30.72-13.312 30.72-30.72V293.888c0-17.408-13.312-30.72-30.72-30.72z m-712.704-88.064h460.8v88.064h-460.8v-88.064z m-30.72 149.504H967.68v180.224H832.512v-69.632H721.92v69.632H310.272v-69.632H199.68v69.632H61.44V324.608h193.536zM61.44 844.8V565.248H199.68V645.12h110.592v-79.872H721.92V645.12h110.592v-79.872H967.68v279.552H61.44z" fill="#1296db" p-id="3277"></path></svg>